<svg width="90" height="18" viewBox="0 0 90 18" fill="none" xmlns="http://www.w3.org/2000/svg">
<path d="M6.69253 9.91812C8.67364 10.0163 8.85475 10.1145 8.77918 10.5073C8.70361 10.9001 8.28472 10.9983 6.48472 10.9983C4.88472 10.9983 4.50361 10.9001 4.56029 10.6055L4.61696 10.3109H1.61696L1.44693 11.1947C1.10687 12.9623 2.11795 13.9443 5.91795 13.9443C9.51795 13.9443 11.3447 12.7659 11.7225 10.8019C12.1192 8.73973 11.0704 7.95413 7.10817 7.75774C5.12706 7.65954 4.94595 7.56134 5.02152 7.16854C5.09709 6.77574 5.51598 6.67755 7.31598 6.67755C8.91598 6.67755 9.29709 6.77574 9.24041 7.07034L9.18374 7.36494H12.1837L12.3538 6.48115C12.6938 4.71356 11.6828 3.73157 7.88276 3.73157C4.28276 3.73157 2.45605 4.90996 2.0782 6.87394C1.68146 8.93613 2.73032 9.72172 6.69253 9.91812ZM19.3082 6.67755C20.5082 6.67755 21.1948 7.26674 20.9303 8.64153L20.8548 9.03433C20.5903 10.4091 19.6769 10.9983 18.4769 10.9983C16.8769 10.9983 16.5903 10.4091 16.8548 9.03433L16.9303 8.64153C17.1948 7.26674 17.7082 6.67755 19.3082 6.67755ZM19.1101 13.9443C21.5101 13.9443 23.1746 12.5695 23.7414 9.62352L24.0437 8.05233C24.6105 5.10636 23.4749 3.73157 21.0749 3.73157C19.1749 3.73157 18.1427 4.41896 17.5349 5.49916L17.6372 3.92797H14.8372L12.1922 17.6759H15.1922L16.2502 12.1767C16.4424 13.2569 17.2101 13.9443 19.1101 13.9443ZM29.7023 13.9443C33.4023 13.9443 35.1235 12.2749 35.6714 9.42712L35.8981 8.24873C36.446 5.40096 35.3671 3.73157 31.6671 3.73157C27.9671 3.73157 26.246 5.40096 25.6981 8.24873L25.4714 9.42712C24.9235 12.2749 26.0023 13.9443 29.7023 13.9443ZM30.2691 10.9983C28.5691 10.9983 28.2447 10.6055 28.5469 9.03433L28.6225 8.64153C28.9248 7.07034 29.4004 6.67755 31.1004 6.67755C32.8004 6.67755 33.1248 7.07034 32.8225 8.64153L32.7469 9.03433C32.4447 10.6055 31.9691 10.9983 30.2691 10.9983ZM36.5323 13.7479H39.5323L40.5147 8.64153C40.7981 7.16854 41.2548 6.87394 42.8548 6.87394H44.8548L45.4215 3.92797H44.0215C42.3215 3.92797 41.6271 4.41896 41.1193 5.49916L41.2215 3.92797H38.4215L36.5323 13.7479ZM51.7069 10.8019H49.5069C48.9069 10.8019 48.5447 10.6055 48.6958 9.81992L49.2626 6.87394H52.4626L53.0293 3.92797H49.8293L50.2072 1.96398H47.8072L46.7953 4.10473L45.5069 10.8019C45.129 12.7659 45.9401 13.7479 47.9401 13.7479H51.1401L51.7069 10.8019Z" fill="#F01B0D"/>
<path d="M52.7479 13.7479H55.7479L56.7303 8.64153C56.9759 7.36494 57.6082 6.67755 59.1082 6.67755C60.5082 6.67755 60.9948 7.26674 60.7303 8.64153L59.7479 13.7479H62.7479L63.8437 8.05233C64.4482 4.90996 63.4749 3.73157 60.8749 3.73157C58.9749 3.73157 57.7427 4.41896 57.3349 5.49916L58.3929 8.51639e-07H55.3929L52.7479 13.7479ZM71.8424 12.1767L71.7401 13.7479H74.5401L76.4293 3.92797H73.4293L72.4469 9.03433C72.2013 10.3109 71.5691 10.9983 70.0691 10.9983C68.6691 10.9983 68.1824 10.4091 68.4469 9.03433L69.4293 3.92797H66.4293L65.3336 9.62352C64.729 12.7659 65.7023 13.9443 68.3023 13.9443C70.2023 13.9443 71.4346 13.2569 71.8424 12.1767ZM82.9925 6.67755C84.1925 6.67755 84.8792 7.26674 84.6147 8.64153L84.5391 9.03433C84.2746 10.4091 83.3613 10.9983 82.1613 10.9983C80.5613 10.9983 80.2746 10.4091 80.5391 9.03433L80.6147 8.64153C80.8792 7.26674 81.3925 6.67755 82.9925 6.67755ZM76.6323 13.7479H79.4323L79.9346 12.1767C80.1268 13.2569 80.8945 13.9443 82.7945 13.9443C85.1945 13.9443 86.859 12.5695 87.4258 9.62352L87.728 8.05233C88.2948 5.10636 87.1593 3.73157 84.7593 3.73157C82.8593 3.73157 81.8271 4.41896 81.2193 5.49916L82.2772 8.51639e-07H79.2772L76.6323 13.7479Z" fill="white"/>
</svg>
