<svg width="12" height="10" viewBox="0 0 12 10" fill="none" xmlns="http://www.w3.org/2000/svg">
<path d="M3.18892 8.83792C3.40808 7.69881 3.70299 6.89358 5.7368 5.99015C7.42299 6.89358 7.40808 7.69881 7.18892 8.83792L7 9.81992H10L10.1889 8.83792C10.4648 7.40422 10.1119 5.91159 8.63973 4.8314C10.5162 3.81013 11.4245 2.4157 11.7003 0.981991L11.8892 0H8.88924L8.70032 0.981991C8.48116 2.1211 8.2127 2.78886 6.18644 3.65301C4.4927 2.78886 4.48116 2.1211 4.70032 0.981991L4.88924 0H1.88924L1.70032 0.981991C1.42449 2.4157 1.79622 3.81013 3.27973 4.8314C1.39192 5.91159 0.464753 7.40422 0.188924 8.83792L0 9.81992H3L3.18892 8.83792Z" fill="#C0160A"/>
</svg>
